<svg xmlns="http://www.w3.org/2000/svg" version="1.1" xmlns:xlink="http://www.w3.org/1999/xlink" xmlns:svgjs="http://svgjs.dev/svgjs" width="100%" height="100%" viewBox="0 0 1000 600"><rect width="1000" height="600" x="0" y="0" fill="#973131"/><g><circle r="166.66666666666666" cx="419.83242289225257" cy="442.0546771938664" fill="#f5e7b2" transform="matrix(0.49374759163441784,0,0,0.49374759163441784,0,81.7365627421382)"/><path d="M413.96167198790863 367.05467485018323L413.96167198790863 367.05467485018323L420.98414419901655 367.13894451671655Q449.8043701534035 367.84119173782733 461.0684155800206 377.9254618329783L461.0684155800206 377.9254618329783Q470.84369689788286 386.60523748590776 470.84369689788286 403.99287868061094L470.84369689788286 403.99287868061094Q470.84369689788286 412.78501388891806 465.4785281285964 421.85804798566954Q460.0852694704655 430.9591719712654 451.88302192789143 436.9704081839738L451.88302192789143 436.9704081839738Q464.2425730194414 438.936700403084 472.80998911699305 448.5715322767241Q481.40549510338917 458.20636415036415 481.40549510338917 472.72883668293537L481.40549510338917 472.72883668293537Q481.40549510338917 517.0546812794487 415.84369454048556 517.0546812794487L415.84369454048556 517.0546812794487Q398.2594241238713 517.0546812794487 374.8605467164597 513.7962541734945L374.8605467164597 513.7962541734945Q370.61897350095046 513.2063665077615 369.32683861410663 502.7288379687884L369.32683861410663 502.7288379687884Q368.9335801702846 499.66704008474534 368.9335801702846 496.12771409034696L368.9335801702846 496.12771409034696L370.11335550175073 430.9591719712654Q370.11335550175073 392.41984447670507 366.26504073006356 386.60523748590776L366.26504073006356 386.60523748590776Q364.38301817748663 383.93669804568674 359.66391685162216 383.54343960186463L359.66391685162216 383.54343960186463Q358.25942240940054 380.2007428293773 358.25942240940054 376.4928775019123Q358.25942240940054 372.78501217444733 358.45605163131154 371.8861357314255L358.45605163131154 371.8861357314255L358.45605163131154 371.2119783991592Q365.87178228624157 369.6108547350266 382.02346837178976 368.3468097370271Q398.175154457338 367.05467485018323 413.96167198790863 367.05467485018323ZM399.0459410115154 480.0322077824876L399.0459410115154 480.0322077824876L398.84931178960437 486.9423204382178Q398.84931178960437 498.48726475327925 402.89425578320254 501.07153452696696L402.89425578320254 501.07153452696696Q409.5234695504884 501.7456918592333 414.9167282086193 501.7456918592333Q420.2818969779058 501.7456918592333 425.08526797030356 501.07153452696696Q429.860549073857 500.3692873058562 434.66392006625483 498.48726475327925Q439.4392011698082 496.6052422007023 442.80998783114 493.655803872037L442.80998783114 493.655803872037Q450.3099881526033 486.82996088284006 450.3099881526033 473.9928816809348L450.3099881526033 473.9928816809348Q450.3099881526033 448.824341276324 414.5515596536417 448.824341276324L414.5515596536417 448.824341276324Q407.7538065532892 448.824341276324 399.74818823262615 449.72321771934577L399.74818823262615 449.72321771934577Q399.74818823262615 461.3524317009405 399.0459410115154 480.0322077824876ZM434.4953807331882 433.71198107801973L434.4953807331882 433.71198107801973Q443.5965047187841 420.28501421038135 443.5965047187841 408.1220923407424Q443.5965047187841 395.9872603599479 436.0965043973208 389.161417370751Q428.5684141870131 382.36366427039854 412.66953710106475 382.36366427039854L412.66953710106475 382.36366427039854Q404.9729075576905 382.36366427039854 396.68639034858313 383.93669804568674L396.68639034858313 383.93669804568674Q398.9616713449821 394.49849625119305 399.2425702334264 404.27377756905526Q399.55155901071515 414.0490588869175 399.60773878840405 422.25130642949154Q399.63582867724847 430.4535539720656 399.74818823262615 434.6951271875748L399.74818823262615 434.6951271875748Q413.5684135440866 433.5153518561087 421.26504308746087 433.5153518561087Q428.96167263083515 433.5153518561087 434.4953807331882 433.71198107801973Z " fill="#e0a75e" transform="matrix(0.49374759163441784,0,0,0.49374759163441784,0,81.7365627421382)"/><path d="M721.8979258289157 376.8481315727914L721.8979258289157 376.8481315727914L728.4619030392869 376.92689929931583Q755.40046551065 377.5832970203529 765.9290849560853 387.00916829444583L765.9290849560853 387.00916829444583Q775.0661412329218 395.1222441264646 775.0661412329218 411.3746516993434L775.0661412329218 411.3746516993434Q775.0661412329218 419.5927511667281 770.0512626441983 428.0734097225275Q765.0101281466333 436.5803241871685 757.3434027649198 442.1990886792462L757.3434027649198 442.1990886792462Q768.896002655173 444.0370022981501 776.9040548518258 453.0427790307793Q784.93836295732 462.04855576340844 784.93836295732 475.62286063445595L784.93836295732 475.62286063445595Q784.93836295732 517.0546847863184 723.6570717212953 517.0546847863184L723.6570717212953 517.0546847863184Q707.220872786526 517.0546847863184 685.3497007215694 514.0089993607062L685.3497007215694 514.0089993607062Q681.3850584865053 513.4576252750351 680.1772866797969 503.6641712771613L680.1772866797969 503.6641712771613Q679.8097039560162 500.8022772134395 679.8097039560162 497.49403269941246L679.8097039560162 497.49403269941246L680.9124521273586 436.5803241871685Q680.9124521273586 400.5572172566518 677.3153926160751 395.1222441264646L677.3153926160751 395.1222441264646Q675.5562467236957 392.6279327865235 671.1452540383264 392.26035006274276L671.1452540383264 392.26035006274276Q669.8324585962521 389.1358969106061 669.8324585962521 385.67011694353016Q669.8324585962521 382.2043369764542 670.0162499581425 381.3641478935267L670.0162499581425 381.3641478935267L670.0162499581425 380.7340060813311Q676.9478098922943 379.2374192773665 692.0449574761479 378.0559033794997Q707.1421050600015 376.8481315727914 721.8979258289157 376.8481315727914ZM707.9560382340876 482.44939693324187L707.9560382340876 482.44939693324187L707.7722468721971 488.90835050824705Q707.7722468721971 499.69952904209714 711.5530977453709 502.11507265551376L711.5530977453709 502.11507265551376Q717.7494922319613 502.74521446770933 722.7906267295263 502.74521446770933Q727.8055053182497 502.74521446770933 732.2952657301437 502.11507265551376Q736.758770233196 501.4586749344766 741.2485306450899 499.69952904209714Q745.7120351481421 497.9403831497177 748.8627442091204 495.18351272136186L748.8627442091204 495.18351272136186Q755.8730718697967 488.8033268728811 755.8730718697967 476.8043765323227L755.8730718697967 476.8043765323227Q755.8730718697967 453.27908221035267 722.449299914587 453.27908221035267L722.449299914587 453.27908221035267Q716.0953699749477 453.27908221035267 708.6124359551246 454.1192712932802L708.6124359551246 454.1192712932802Q708.6124359551246 464.9892175536547 707.9560382340876 482.44939693324187ZM741.090995192041 439.153403253634L741.090995192041 439.153403253634Q749.5979096566818 426.60307882740443 749.5979096566818 415.23427029904167Q749.5979096566818 403.89171767952035 742.5875819960056 397.51153183103963Q735.5509984264877 391.1576018914004 720.6901540222075 391.1576018914004L720.6901540222075 391.1576018914004Q713.4960349996408 391.1576018914004 705.7505418914029 392.6279327865235L705.7505418914029 392.6279327865235Q707.877270507563 402.5001545109217 708.139829595978 411.6372107877583Q708.4286445932343 420.7742670645949 708.4811564109173 428.4409924463083Q708.5074123197587 436.1077178280218 708.6124359551246 440.07236006308597L708.6124359551246 440.07236006308597Q721.530343105135 438.9696118917436 728.7244621277018 438.9696118917436Q735.9185811502684 438.9696118917436 741.090995192041 439.153403253634ZM911.0454931229699 462.8624889374945L911.0454931229699 462.8624889374945Q911.0454931229699 474.9664629134188 906.6870122552834 485.5738500853785Q902.3547872964385 496.20749316617975 894.4255028263102 502.92900582959976L894.4255028263102 502.92900582959976Q878.4619102506877 516.5033107006473 852.2322573180446 516.5033107006473L852.2322573180446 516.5033107006473Q839.130558806144 516.5033107006473 828.0505652750375 510.33317212289836Q816.970571743931 504.13677763630807 810.4328504424014 493.00427228751863Q803.8688732320303 481.8980228475707 803.8688732320303 466.43329253993636Q803.8688732320303 450.968562232302 811.7981577021586 438.6020291679628L811.7981577021586 438.6020291679628Q827.3941675540003 414.23654576306524 864.1524399320787 414.23654576306524L864.1524399320787 414.23654576306524Q882.6103438476422 414.23654576306524 896.5522314424704 426.86563791581926L896.5522314424704 426.86563791581926Q911.0454931229699 440.07236006308597 911.0454931229699 462.8624889374945ZM831.0962507006496 465.5405916393259Q831.0962507006496 481.34664876189953 840.2333069774862 493.16180774056755Q849.3703632543229 504.9769667192355 861.6581285921376 504.9769667192355L861.6581285921376 504.9769667192355Q884.3694897400217 504.9769667192355 884.3694897400217 467.95613525274246L884.3694897400217 467.95613525274246Q884.3694897400217 449.57699906370334 875.9675989107467 438.1294228088161Q867.5657080814716 426.6818465539289 854.5427772960953 426.6818465539289L854.5427772960953 426.6818465539289Q847.9788000857242 426.6818465539289 843.200224676574 430.0163469767974Q838.3953933585824 433.32459149082445 835.9010820186414 438.9696118917436L835.9010820186414 438.9696118917436Q831.0962507006496 449.7607904255937 831.0962507006496 465.5405916393259ZM1038.9642809986822 462.8624889374945L1038.9642809986822 462.8624889374945Q1038.9642809986822 474.9664629134188 1034.6320560398372 485.5738500853785Q1030.2998310809924 496.20749316617975 1022.3442907020226 502.92900582959976L1022.3442907020226 502.92900582959976Q1006.3806981264 516.5033107006473 980.1773011025984 516.5033107006473L980.1773011025984 516.5033107006473Q967.0756025906977 516.5033107006473 955.9956090595913 510.33317212289836Q944.9156155284849 504.13677763630807 938.3516383181137 493.00427228751863Q931.813917016584 481.8980228475707 931.813917016584 466.43329253993636Q931.813917016584 450.968562232302 939.7432014867123 438.6020291679628L939.7432014867123 438.6020291679628Q955.3392113385542 414.23654576306524 992.0712278077909 414.23654576306524L992.0712278077909 414.23654576306524Q1010.5291317233545 414.23654576306524 1024.4710193181827 426.86563791581926L1024.4710193181827 426.86563791581926Q1038.9642809986822 440.07236006308597 1038.9642809986822 462.8624889374945ZM959.0412944852035 465.5405916393259Q959.0412944852035 481.34664876189953 968.17835076204 493.16180774056755Q977.3154070388767 504.9769667192355 989.5769164678499 504.9769667192355L989.5769164678499 504.9769667192355Q1012.288277615734 504.9769667192355 1012.288277615734 467.95613525274246L1012.288277615734 467.95613525274246Q1012.288277615734 449.57699906370334 1003.886386786459 438.1294228088161Q995.4844959571839 426.6818465539289 982.487821080649 426.6818465539289L982.487821080649 426.6818465539289Q975.923843870278 426.6818465539289 971.1190125522863 430.0163469767974Q966.3141812342947 433.32459149082445 963.8461258031952 438.9696118917436L963.8461258031952 438.9696118917436Q959.0412944852035 449.7607904255937 959.0412944852035 465.5405916393259ZM1158.6124575893268 498.51801314423034L1158.6124575893268 498.51801314423034Q1162.2882848271347 498.51801314423034 1165.8065766118934 496.10246953081383L1165.8065766118934 496.10246953081383L1169.5874274850676 502.2988640174041Q1163.391032998477 511.61971165613113 1153.623834909445 515.295538893939L1153.623834909445 515.295538893939Q1149.5541690390146 516.870893424428 1145.2219440801698 516.870893424428Q1140.889719121325 516.870893424428 1136.7675414332118 514.6128852640604Q1132.67161965394 512.3548771036926 1129.520910592962 508.83658531893377Q1126.3964574408255 505.3445494430163 1123.3770279240548 500.067111765878Q1120.3838543161255 494.81592999758107 1118.3621493353312 489.95858686190644Q1116.3141884456954 485.1274996350733 1114.2924834649011 478.93110514848297L1114.2924834649011 478.93110514848297Q1111.7981721249603 471.6319624905503 1108.6737189728233 459.1866616996866L1108.6737189728233 459.1866616996866Q1102.2935331243425 469.05888342408485 1096.7535363587895 475.25527791067515L1096.7535363587895 475.25527791067515Q1096.7535363587895 485.94143280915927 1096.3859536350087 513.0900425512543L1096.3859536350087 513.0900425512543Q1087.3276650846965 514.8491884436337 1080.2910815151786 514.8491884436337Q1073.2282420368194 514.8491884436337 1068.4234107188277 512.906251189364L1068.4234107188277 512.906251189364Q1070.7339306968784 498.9643635945356 1070.7339306968784 460.84078395670014Q1070.7339306968784 422.71720431886473 1069.3423675282797 395.30603548835495L1069.3423675282797 395.30603548835495Q1068.6072020807183 386.45779420877466 1057.605976276136 385.1449987667005L1057.605976276136 385.1449987667005Q1057.5272085496117 384.59362468102927 1057.3434171877213 383.4908765096869L1057.3434171877213 383.4908765096869Q1056.9758344639406 381.3641478935267 1056.9758344639406 380.3926792663918Q1056.9758344639406 379.42121063925686 1057.0546021904652 378.68604519169526L1057.0546021904652 378.68604519169526Q1074.330990208162 371.85950889290933 1092.3162877645786 371.85950889290933L1092.3162877645786 371.85950889290933Q1093.1564768475062 371.85950889290933 1094.075433656958 371.85950889290933L1094.075433656958 371.85950889290933Q1096.0971386377523 374.45884386821626 1096.569744996899 382.2831047029787Q1097.0423513560459 390.13362144658254 1097.0423513560459 414.1315221276993Q1097.0423513560459 438.1294228088161 1096.93732772068 458.2677048902347L1096.93732772068 458.2677048902347Q1107.1771321688589 439.153403253634 1115.0276489124626 430.75151242435896L1115.0276489124626 430.75151242435896Q1124.637311548446 420.51170797618005 1131.2275446676585 417.91237300087306Q1137.8440336957128 415.3392939344076 1143.0952154640095 415.3392939344076L1143.0952154640095 415.3392939344076Q1152.3110394673708 415.3392939344076 1158.0873394124974 420.45919615849704Q1163.863639357624 425.57909838258655 1163.863639357624 434.2172923914349Q1163.863639357624 442.8554864002833 1158.1923630478632 447.9753886243728Q1152.5210867381024 453.09529084846224 1144.6705699944987 453.09529084846224L1144.6705699944987 453.09529084846224Q1142.9901918286437 453.09529084846224 1141.33606957163 452.8064758512059L1141.33606957163 452.8064758512059Q1141.33606957163 442.30411231461215 1137.2664037012 437.9456314469257L1137.2664037012 437.9456314469257Q1135.4284900822963 435.9239264661314 1131.77891875333 435.9239264661314Q1128.1293474243635 435.9239264661314 1124.53228791308 438.8383323475362Q1120.9352284017968 441.7264823200995 1116.235420719171 448.00164453321423L1116.235420719171 448.00164453321423Q1128.969536507291 470.8180293164643 1140.6009041240686 484.65489327592655Q1152.232271740846 498.51801314423034 1158.6124575893268 498.51801314423034ZM1274.0859446741756 460.9458075920661L1274.0859446741756 460.9458075920661L1273.5083146796628 491.95403593385925Q1273.5083146796628 492.4003863841645 1273.5083146796628 492.8729927433112L1273.5083146796628 492.8729927433112Q1273.5083146796628 497.9403831497177 1278.3131459976548 497.9403831497177L1278.3131459976548 497.9403831497177Q1282.0152291443037 497.9403831497177 1286.1636627412586 495.5510954451426L1286.1636627412586 495.5510954451426Q1287.4502022744914 496.65384361648495 1288.6054622635165 498.6492926884378Q1289.7607222525417 500.6184858515491 1289.9445136144323 501.74748993173296L1289.9445136144323 501.74748993173296Q1278.496937359545 516.3195193387569 1266.1829161128887 516.3195193387569Q1253.8688948662325 516.3195193387569 1248.9590399128751 504.21554536283253L1248.9590399128751 504.21554536283253Q1240.4783813570755 510.12312485216654 1231.6563959863367 513.2213220954616Q1222.8344106155978 516.3195193387569 1216.5329924936416 516.3195193387569Q1210.205318462844 516.3195193387569 1204.7966012414981 514.9279561701582Q1199.3878840201523 513.562648910401 1194.7930999728924 510.51696348478873L1194.7930999728924 510.51696348478873Q1184.8158546131285 504.0317540009421 1184.8158546131285 489.1709095966619L1184.8158546131285 489.1709095966619Q1184.8158546131285 481.2416251265336 1189.2005913896564 475.2815338195166Q1193.5853281661844 469.34769842134114 1201.1470299125317 465.93443027194814L1201.1470299125317 465.93443027194814Q1215.6402915930312 459.37045306157705 1235.77857367445 458.8190789759059L1235.77857367445 458.8190789759059L1246.4647285729338 458.4514962521251Q1247.121126293971 450.968562232302 1247.121126293971 446.63633727345706L1247.121126293971 446.63633727345706Q1247.121126293971 436.84288327558335 1243.3927872384802 431.8542605957013Q1239.638192274148 426.86563791581926 1229.503411461335 426.86563791581926L1229.503411461335 426.86563791581926Q1223.4120406101106 426.86563791581926 1220.025028369559 431.11909514813976Q1216.664272037849 435.37255238046026 1216.664272037849 443.66941957436933L1216.664272037849 443.66941957436933Q1216.664272037849 444.77216774571167 1213.513562976871 446.3475222762007L1213.513562976871 446.3475222762007Q1208.262381208574 448.84183361614174 1203.0374553491188 448.84183361614174Q1197.8387853985046 448.84183361614174 1194.7405881552095 445.9011718258955Q1191.6423909119144 442.93425412680773 1191.6423909119144 437.57804872314495Q1191.6423909119144 432.2218433194821 1195.5282654204539 427.5220356368564Q1199.3878840201523 422.82222795423064 1205.873093503999 420.2228929789237L1205.873093503999 420.2228929789237Q1218.6859770186434 415.1555025725172 1235.1221759534128 415.1555025725172L1235.1221759534128 415.1555025725172Q1252.2935403357433 415.1555025725172 1260.2228248058718 420.5904757027045L1260.2228248058718 420.5904757027045Q1267.4169438284384 425.3953070206961 1270.4626292540506 434.3485719356424L1270.4626292540506 434.3485719356424Q1274.0859446741756 444.77216774571167 1274.0859446741756 460.9458075920661ZM1246.4647285729338 494.5271150003247L1246.4647285729338 494.5271150003247Q1245.2832126750673 487.8056023369047 1245.2832126750673 482.8694914747056Q1245.2832126750673 477.93338061250654 1245.545771763482 469.05888342408485L1245.545771763482 469.05888342408485L1232.7328882488375 469.61025750975597Q1222.8344106155978 469.61025750975597 1217.5044611207766 474.41508882774764Q1212.148255717114 479.2199201457393 1212.148255717114 486.41403916830603Q1212.148255717114 493.60815819087276 1215.2727088692504 496.7588672518509Q1218.4234179302284 499.88332040398757 1227.9805687485289 499.88332040398757Q1237.5114636579879 499.88332040398757 1246.4647285729338 494.5271150003247ZM1380.1335604849314 493.0567841052016L1380.1335604849314 493.0567841052016L1381.0525172943835 457.9001221664539Q1381.0525172943835 457.0599330835264 1381.0525172943835 455.24827537346397Q1381.0525172943835 453.46287357224304 1381.0525172943835 451.8087513152295Q1381.0525172943835 450.1283731493745 1381.0000054767002 448.5792745277269Q1380.9737495678587 447.00391999723786 1380.7899582059686 445.5598450109562Q1380.606166844078 444.14202593351604 1380.369863664505 442.8554864002833Q1380.1335604849314 441.5426909582091 1379.7134659434678 440.4924546045497Q1379.2933714020037 439.44221825089033 1378.7157414074914 438.54951735027987Q1378.111855504137 437.68307235851086 1377.2716664212094 436.9741628197908Q1376.431477338282 436.2915091899122 1375.3287291669399 435.740135104241L1375.3287291669399 435.740135104241Q1373.2020005507798 434.82117829478904 1368.3184015062634 434.82117829478904L1368.3184015062634 434.82117829478904Q1357.0546166132663 434.82117829478904 1342.5613549327672 448.84183361614174L1342.5613549327672 448.84183361614174Q1342.5613549327672 466.0131979984726 1342.009980847096 513.0900425512543L1342.009980847096 513.0900425512543Q1331.6651527635513 514.8491884436337 1325.0224078266556 514.8491884436337Q1318.3796628897599 514.8491884436337 1313.679855207134 513.0900425512543L1313.679855207134 513.0900425512543Q1315.439001099514 499.98834403935354 1315.439001099514 459.9218271472482Q1315.439001099514 419.8553102551429 1314.5988120165862 395.30603548835495L1314.5988120165862 395.30603548835495Q1314.0474379309148 386.0639555761524 1303.046212126333 384.8824396782856L1303.046212126333 384.8824396782856Q1302.9674443998088 384.33106559261444 1302.7836530379182 383.2283174212721L1302.7836530379182 383.2283174212721Q1302.4160703141374 381.1803565316363 1302.4160703141374 380.3664233575503L1302.4160703141374 380.3664233575503Q1302.4160703141374 379.2374192773665 1302.4948380406618 378.5022538298049L1302.4948380406618 378.5022538298049Q1314.6775797431105 373.8024461471792 1323.0007028458613 372.7259538846783Q1331.29757003977 371.6757175310189 1334.8946295510536 371.6757175310189Q1338.4916890623372 371.6757175310189 1339.3318781452645 371.6757175310189L1339.3318781452645 371.6757175310189Q1341.5636303967908 374.45884386821626 1342.1150044824617 384.59362468102927Q1342.666378568133 394.7546614026838 1342.666378568133 411.1383485197701Q1342.666378568133 427.5220356368564 1342.5613549327672 435.00496965667946L1342.5613549327672 435.00496965667946Q1350.8844780355175 424.9489565703909 1361.7544242958925 419.77654252861845Q1372.6506264651084 414.60412848684604 1383.5468286343244 414.60412848684604Q1394.4430308035403 414.60412848684604 1400.586913472448 421.79824750941276Q1406.7307961413553 428.9923665319795 1407.6497529508074 441.46392323168465L1407.6497529508074 441.46392323168465Q1408.0173356745881 447.00391999723786 1408.0173356745881 452.8064758512059Q1408.0173356745881 458.63528761401545 1406.940843412087 471.84200976128216Q1405.8906070584276 485.02247599970735 1405.8906070584276 495.47232771861815L1405.8906070584276 495.47232771861815Q1405.8906070584276 497.86161542319326 1409.3038752078205 499.148154956426Q1412.7171433572134 500.43469448965874 1415.9991319623991 500.43469448965874Q1419.2811205675848 500.43469448965874 1420.4626364654514 500.067111765878L1420.4626364654514 500.067111765878Q1421.5916405456355 502.56142310581896 1421.5916405456355 504.6356399042963Q1421.5916405456355 506.7098567027735 1421.407849183745 507.47127805917654L1421.407849183745 507.47127805917654Q1404.1314611660482 516.4245429741227 1395.6508026102488 516.4245429741227Q1387.143888145608 516.4245429741227 1383.6518522696902 510.6482430289962Q1380.1335604849314 504.8719430838696 1380.1335604849314 493.0567841052016ZM1543.8916639292702 462.8624889374945L1543.8916639292702 462.8624889374945Q1543.8916639292702 474.9664629134188 1539.5594389704252 485.5738500853785Q1535.2009581027387 496.20749316617975 1527.2716736326101 502.92900582959976L1527.2716736326101 502.92900582959976Q1511.3080810569877 516.5033107006473 1485.078428124345 516.5033107006473L1485.078428124345 516.5033107006473Q1471.9767296124442 516.5033107006473 1460.8967360813376 510.33317212289836Q1449.816742550231 504.13677763630807 1443.2790212487016 493.00427228751863Q1436.7150440383302 481.8980228475707 1436.7150440383302 466.43329253993636Q1436.7150440383302 450.968562232302 1444.6443285084588 438.6020291679628L1444.6443285084588 438.6020291679628Q1460.266594269142 414.23654576306524 1496.9986107383788 414.23654576306524L1496.9986107383788 414.23654576306524Q1515.4565146539421 414.23654576306524 1529.3984022487707 426.86563791581926L1529.3984022487707 426.86563791581926Q1543.8916639292702 440.07236006308597 1543.8916639292702 462.8624889374945ZM1463.9424215069498 465.5405916393259Q1463.9424215069498 481.34664876189953 1473.0794777837864 493.16180774056755Q1482.216534060623 504.9769667192355 1494.5042993984375 504.9769667192355L1494.5042993984375 504.9769667192355Q1517.215660546322 504.9769667192355 1517.215660546322 467.95613525274246L1517.215660546322 467.95613525274246Q1517.215660546322 449.57699906370334 1508.8137697170469 438.1294228088161Q1500.4118788877718 426.6818465539289 1487.3889481023953 426.6818465539289L1487.3889481023953 426.6818465539289Q1480.8512268008658 426.6818465539289 1476.0463954828742 430.0163469767974Q1471.2415641648827 433.32459149082445 1468.7472528249414 438.9696118917436L1468.7472528249414 438.9696118917436Q1463.9424215069498 449.7607904255937 1463.9424215069498 465.5405916393259ZM1571.3816004863043 395.30603548835495L1571.3816004863043 395.30603548835495Q1569.8325018646565 386.35277057340875 1559.671465143002 385.1449987667005L1559.671465143002 385.1449987667005Q1559.0150674219649 380.6289824459651 1559.0150674219649 380.025096542611Q1559.0150674219649 379.42121063925686 1559.1200910573311 378.68604519169526L1559.1200910573311 378.68604519169526Q1576.5540145280766 371.85950889290933 1594.460544357969 371.85950889290933L1594.460544357969 371.85950889290933Q1595.3007334408967 371.85950889290933 1596.2196902503483 371.85950889290933L1596.2196902503483 371.85950889290933Q1598.1626275046183 374.35382023285035 1598.8190252256554 383.438364692004Q1599.449167037851 392.5491650599991 1599.449167037851 425.71037792679397Q1599.449167037851 458.8978467024303 1598.4251865930332 513.0900425512543L1598.4251865930332 513.0900425512543Q1592.3338157418088 514.8491884436337 1583.8531571860094 514.8491884436337Q1575.37249863021 514.8491884436337 1570.6464350387428 512.906251189364L1570.6464350387428 512.906251189364Q1572.3268132045978 500.53971812502465 1572.3268132045978 465.72438300121627Q1572.3268132045978 430.93530378624934 1571.3816004863043 395.30603548835495ZM1632.6891476311703 371.6757175310189L1632.6891476311703 371.6757175310189Q1638.1241207613575 367.05467757491766 1644.5043066098383 367.05467757491766Q1650.8582365494776 367.05467757491766 1655.0329260552735 370.9930639011403Q1659.1813596522284 374.9051943185215 1659.1813596522284 382.0205456145638Q1659.1813596522284 389.1358969106061 1653.8251542485655 393.9669841374392Q1648.4689488449026 398.82432727311385 1641.5899007284338 398.82432727311385Q1634.7108526119646 398.82432727311385 1630.7987221945837 394.57087004079335Q1626.8603358683608 390.3174128084729 1626.8603358683608 383.6746678715773Q1626.8603358683608 377.03192293468175 1632.6891476311703 371.6757175310189ZM1630.1948362912294 439.153403253634L1630.1948362912294 439.153403253634Q1630.1948362912294 432.14307559295764 1625.311237246713 430.85653605972493L1625.311237246713 430.85653605972493Q1622.160528185735 429.832555614907 1616.4367400582914 429.3599492557603L1616.4367400582914 429.3599492557603Q1615.7803423372543 426.60307882740443 1615.7803423372543 425.1590038411228Q1615.7803423372543 423.7411847636826 1615.8853659726205 422.9009956807551L1615.8853659726205 422.9009956807551Q1629.1708558464115 415.41806166093204 1649.204114292464 415.41806166093204L1649.204114292464 415.41806166093204Q1652.4335910799668 415.41806166093204 1654.008945610456 415.523085296298L1654.008945610456 415.523085296298Q1656.5820246769213 419.5927511667281 1657.6060051217391 431.4079101453961L1657.6060051217391 431.4079101453961Q1658.3411705693006 436.7641155490589 1658.3411705693006 447.55529408290903Q1658.3411705693006 458.3464726167592 1657.6060051217391 513.2738339131447L1657.6060051217391 513.2738339131447Q1647.3662006735603 515.0329798055241 1640.565920283616 515.0329798055241Q1633.791895802513 515.0329798055241 1629.0920881198872 513.2738339131447L1629.0920881198872 513.2738339131447Q1630.7462103769008 491.03507912440733 1630.7462103769008 473.4436202006127Q1630.7462103769008 455.8521612768181 1630.1948362912294 439.153403253634ZM1772.1605353971358 437.68307235851086L1772.1605353971358 437.68307235851086Q1772.1605353971358 451.70372767986356 1757.5622500812706 451.70372767986356L1757.5622500812706 451.70372767986356Q1752.5998833102299 451.70372767986356 1750.368131058704 450.54846769083827Q1748.162634716019 449.39320770181297 1748.162634716019 449.20941633992254L1748.162634716019 449.20941633992254Q1748.425193804434 447.4502704475431 1748.425193804434 445.6123568286392L1748.425193804434 445.6123568286392Q1748.425193804434 436.9479069109493 1742.8589411300395 431.80174877801835Q1737.2664325468031 426.6818465539289 1727.8405612727101 426.6818465539289Q1718.440945907459 426.6818465539289 1712.7171577800154 434.7686664771061Q1706.9933696525713 442.8554864002833 1706.9933696525713 459.81680351188226Q1706.9933696525713 476.8043765323227 1716.8130795592865 489.827307317699Q1726.6590453748436 502.8502381030753 1738.736763441926 502.8502381030753L1738.736763441926 502.8502381030753Q1749.186615160837 502.8502381030753 1759.6102109709063 494.44834727380027L1759.6102109709063 494.44834727380027Q1761.9994986754814 492.5054100195304 1764.415042288898 489.827307317699L1764.415042288898 489.827307317699Q1766.4367472696922 491.11384685093174 1768.6159877035357 493.47687864666534Q1770.7689722285372 495.83991044239895 1771.2415785876842 497.9403831497177L1771.2415785876842 497.9403831497177Q1766.9093536288392 503.76919491252727 1758.1398800757834 509.1254003161901L1758.1398800757834 509.1254003161901Q1746.1146738263833 516.3195193387569 1731.6476680547253 516.3195193387569Q1717.1544063742263 516.3195193387569 1705.2867355778753 510.22814848753245Q1693.419064781524 504.13677763630807 1686.592528482738 492.79422501678675Q1679.7659921839522 481.425416488424 1679.7659921839522 466.9321548079246L1679.7659921839522 466.9321548079246Q1679.7659921839522 439.04837961826803 1700.350624715676 423.924976125573L1700.350624715676 423.924976125573Q1713.5310909541013 414.23654576306524 1732.4616012288116 414.23654576306524L1732.4616012288116 414.23654576306524Q1748.425193804434 414.23654576306524 1760.240352783102 421.1418497883756L1760.240352783102 421.1418497883756Q1765.596558186765 424.2925588493538 1768.8260349742677 428.62478380819874Q1772.05551176177 432.95700876704365 1772.1605353971358 437.68307235851086Z " fill="#e0a75e" transform="matrix(0.49374759163441784,0,0,0.49374759163441784,0,81.7365627421382)"/></g></svg>